<svg width="642" height="1158" viewBox="0 0 642 1158" fill="none" xmlns="http://www.w3.org/2000/svg">
<mask id="mask0_275_10" style="mask-type:alpha" maskUnits="userSpaceOnUse" x="0" y="0" width="642" height="1158">
<path d="M641.922 0.0859375H0.212158V1158H641.922V0.0859375Z" fill="white"/>
</mask>
<g mask="url(#mask0_275_10)">
<path fill-rule="evenodd" clip-rule="evenodd" d="M631.917 -35.4296C633.02 -32.9015 631.597 48.7667 631.917 67.0304C633.731 170.589 615.352 259.472 579.624 319.934C572.494 332 568.426 337.827 555.454 354.55C497.462 429.315 474.528 479.598 472.11 537.287C471.406 554.086 472.103 567.176 475.443 599.869C483.716 680.841 480.036 737.973 463.271 788.873C455.157 813.51 442.037 838.424 426.929 857.888C408.008 882.265 388.776 898.281 326.758 941.312C307.399 954.745 288.014 968.578 283.681 972.052C260.806 990.391 258.451 1032.1 200.703 1089.99C142.956 1147.87 -33.2007 1179.13 -33.2007 1179.13L-43.4258 936.886L-11.2341 449.356L-12.3448 75.982L-11.768 -0.66423C182.082 -135.09 631.76 -35.7885 631.917 -35.4296Z" fill="url(#paint0_linear_275_10)" fill-opacity="0.3"/>
<path fill-rule="evenodd" clip-rule="evenodd" d="M641.705 -14.3998C642.678 -11.7882 643.377 27.606 642.773 45.8583C639.351 149.352 616.519 236.579 577.809 294.051C570.084 305.519 565.729 311.008 551.939 326.656C490.287 396.614 464.859 444.954 459.532 502.331C457.98 519.039 458.015 532.159 459.696 565.054C463.861 646.526 457.302 703.246 438 752.698C428.657 776.633 414.306 800.443 398.245 818.654C378.13 841.463 358.128 855.902 294.063 893.868C274.063 905.719 254.019 917.968 249.52 921.087C225.765 937.553 214.412 951.498 208.367 971.642L206.286 978.574L6.5276 898.621L-18.3886 375.777L-66.2163 -61.0667L201.746 -69.5978C401.994 -188.189 641.566 -14.7705 641.705 -14.3998Z" fill="url(#paint1_linear_275_10)" fill-opacity="0.35"/>
<path fill-rule="evenodd" clip-rule="evenodd" d="M609.592 -41.8449C610.714 -39.33 613.697 -0.105898 614.154 18.1532C616.747 121.685 599.039 210.784 563.767 271.671C556.728 283.821 552.704 289.696 539.858 306.574C482.431 382.029 459.877 432.584 457.893 490.299C457.316 507.106 458.111 520.187 461.697 552.838C470.579 633.709 467.33 690.882 450.949 741.98C443.02 766.713 430.088 791.783 415.127 811.426C396.39 836.028 377.28 852.273 315.589 896.044C296.331 909.708 277.051 923.772 272.745 927.297C250.009 945.91 247.967 987.647 190.658 1046.22C133.349 1104.79 -42.5643 1138.16 -42.5643 1138.16L-54.6118 896.044L-26.0904 408.151L-30.0108 34.8078V-41.8419C162.819 -178.58 609.432 -42.2018 609.592 -41.8449Z" fill="url(#paint2_linear_275_10)"/>
<path fill-rule="evenodd" clip-rule="evenodd" d="M609.592 -41.8449C610.714 -39.33 613.697 -0.105898 614.154 18.1532C616.747 121.685 599.039 210.784 563.767 271.671C556.728 283.821 552.704 289.696 539.858 306.574C482.431 382.029 459.877 432.584 457.893 490.299C457.316 507.106 458.111 520.187 461.697 552.838C470.579 633.709 467.33 690.882 450.949 741.98C443.02 766.713 430.088 791.783 415.127 811.426C396.39 836.028 377.28 852.273 315.589 896.044C296.331 909.708 277.051 923.772 272.745 927.297C250.009 945.91 247.967 987.647 190.658 1046.22C133.349 1104.79 -42.5643 1138.16 -42.5643 1138.16L-54.6118 896.044L-26.0904 408.151L-30.0108 34.8078V-41.8419C162.819 -178.58 609.432 -42.2018 609.592 -41.8449Z" fill="url(#paint3_linear_275_10)" fill-opacity="0.2"/>
</g>
<defs>
<linearGradient id="paint0_linear_275_10" x1="488.772" y1="596.704" x2="217.738" y2="476.055" gradientUnits="userSpaceOnUse">
<stop stop-color="#7FB742"/>
<stop offset="1" stop-color="#7FB742"/>
</linearGradient>
<linearGradient id="paint1_linear_275_10" x1="473.159" y1="562.951" x2="206.242" y2="425.707" gradientUnits="userSpaceOnUse">
<stop stop-color="#7FB742"/>
<stop offset="1" stop-color="#7FB742"/>
</linearGradient>
<linearGradient id="paint2_linear_275_10" x1="475.002" y1="549.502" x2="203.427" y2="431.285" gradientUnits="userSpaceOnUse">
<stop stop-color="#7FB742"/>
<stop offset="1" stop-color="#7FB742"/>
</linearGradient>
<linearGradient id="paint3_linear_275_10" x1="270.701" y1="75.5829" x2="623.789" y2="556.443" gradientUnits="userSpaceOnUse">
<stop stop-color="#C4D6B0"/>
<stop offset="1" stop-color="#7FB742"/>
</linearGradient>
</defs>
</svg>
