<svg width="347" height="308" viewBox="0 0 347 308" fill="none" xmlns="http://www.w3.org/2000/svg">
<path d="M39.0339 278.543H11.7422V278.749H39.0339V278.543Z" fill="#EBEBEB"/>
<path d="M116.698 276.312H94.9521V276.519H116.698V276.312Z" fill="#EBEBEB"/>
<path d="M80.4906 283.406H42.6514V283.612H80.4906V283.406Z" fill="#EBEBEB"/>
<path d="M339.243 284.816H321.444V285.022H339.243V284.816Z" fill="#EBEBEB"/>
<path d="M317.439 284.816H291.095V285.022H317.439V284.816Z" fill="#EBEBEB"/>
<path d="M242.362 281.336H196.942V281.542H242.362V281.336Z" fill="#EBEBEB"/>
<path d="M163.808 233.948H4.69694C3.45048 233.946 2.25581 233.449 1.3752 232.567C0.49459 231.685 -1.91151e-06 230.489 0 229.243V5.57804C0.0108507 4.33873 0.510231 3.15374 1.38967 2.28047C2.26911 1.40721 3.45758 0.916186 4.69694 0.914062H163.808C165.056 0.914063 166.252 1.40979 167.135 2.29218C168.017 3.17457 168.513 4.37135 168.513 5.61924V229.243C168.513 230.491 168.017 231.688 167.135 232.57C166.252 233.452 165.056 233.948 163.808 233.948ZM4.69694 1.07887C3.50511 1.08105 2.36285 1.55603 1.52087 2.39955C0.678892 3.24308 0.206004 4.38621 0.206006 5.57804V229.243C0.206004 230.435 0.678892 231.578 1.52087 232.421C2.36285 233.265 3.50511 233.74 4.69694 233.742H163.808C165 233.74 166.143 233.265 166.987 232.422C167.83 231.579 168.305 230.436 168.307 229.243V5.57804C168.305 4.38545 167.83 3.24234 166.987 2.39905C166.143 1.55576 165 1.08105 163.808 1.07887H4.69694Z" fill="#EBEBEB"/>
<path d="M342.052 233.948H182.933C181.686 233.946 180.49 233.45 179.609 232.568C178.727 231.686 178.23 230.49 178.228 229.243V5.57804C178.241 4.33798 178.742 3.153 179.623 2.27996C180.504 1.40692 181.693 0.916162 182.933 0.914062H342.052C343.29 0.918351 344.477 1.41033 345.354 2.28337C346.232 3.1564 346.73 4.34015 346.741 5.57804V229.243C346.741 230.488 346.248 231.682 345.369 232.564C344.49 233.446 343.297 233.944 342.052 233.948ZM182.933 1.07887C181.741 1.08105 180.597 1.55576 179.754 2.39905C178.911 3.24234 178.436 4.38545 178.434 5.57804V229.243C178.436 230.436 178.911 231.579 179.754 232.422C180.597 233.265 181.741 233.74 182.933 233.742H342.052C343.245 233.74 344.388 233.265 345.231 232.422C346.075 231.579 346.549 230.436 346.551 229.243V5.57804C346.549 4.38545 346.075 3.24234 345.231 2.39905C344.388 1.55576 343.245 1.08105 342.052 1.07887H182.933Z" fill="#EBEBEB"/>
<path d="M26.5005 136.754L249.448 136.754L249.448 12.6311L26.5005 12.6311L26.5005 136.754Z" fill="#E0E0E0"/>
<path d="M14.2638 136.754L248.328 136.754L248.328 12.6311L14.2638 12.6311L14.2638 136.754Z" fill="#F5F5F5"/>
<path d="M244.496 132.921V16.4531L18.0789 16.4531V132.921H244.496Z" fill="white"/>
<path d="M152.824 132.929L110.073 16.4531H180.626L223.377 132.929H152.824Z" fill="#F5F5F5"/>
<path d="M84.9157 132.929L42.1653 16.4531H95.389L138.131 132.929H84.9157Z" fill="#F5F5F5"/>
<path d="M324.904 266.852H337.594V181.458H324.904V266.852Z" fill="#F0F0F0"/>
<path d="M195.796 270.695H335.147V266.847H195.796V270.695Z" fill="#F0F0F0"/>
<path d="M324.904 181.449H193.365V266.843H324.904V181.449Z" fill="#F5F5F5"/>
<path d="M326.223 181.449H339.193V178.087H326.223V181.449Z" fill="#F0F0F0"/>
<path d="M326.215 178.094H191.767V181.456H326.215V178.094Z" fill="#FAFAFA"/>
<path d="M320.43 221.923H197.832V188.41H320.43V221.923ZM198.87 220.926H319.392V189.448H198.87V220.926Z" fill="#E0E0E0"/>
<path d="M320.43 259.888H197.832V226.836H320.43V259.888ZM198.87 258.833H319.392V227.874H198.87V258.833Z" fill="#E0E0E0"/>
<path d="M222.149 195.095H296.113C296.476 195.095 296.824 194.951 297.08 194.694C297.337 194.438 297.481 194.09 297.481 193.727C297.479 193.365 297.334 193.02 297.077 192.765C296.821 192.51 296.475 192.367 296.113 192.367H222.149C221.788 192.367 221.442 192.51 221.187 192.765C220.932 193.02 220.789 193.366 220.789 193.727C220.788 193.906 220.822 194.084 220.89 194.25C220.958 194.416 221.058 194.566 221.184 194.694C221.311 194.821 221.461 194.922 221.627 194.99C221.792 195.059 221.969 195.095 222.149 195.095Z" fill="#E0E0E0"/>
<path d="M222.149 233.525H296.113C296.475 233.523 296.822 233.378 297.078 233.122C297.334 232.866 297.479 232.519 297.481 232.157C297.479 231.795 297.334 231.448 297.078 231.192C296.822 230.936 296.475 230.791 296.113 230.789H222.149C221.787 230.791 221.442 230.936 221.187 231.193C220.932 231.449 220.789 231.796 220.789 232.157C220.789 232.518 220.932 232.865 221.187 233.121C221.442 233.378 221.787 233.523 222.149 233.525Z" fill="#E0E0E0"/>
<path d="M85.2042 168.289H63.9032C60.1511 168.34 56.5225 169.637 53.5882 171.976C50.654 174.315 48.5807 177.564 47.6946 181.21L42.0665 204.703L30.5302 204.662C27.8511 204.658 25.2543 205.587 23.1854 207.289C21.1165 208.991 19.7045 211.36 19.1916 213.99L17.6589 222.04C16.4939 222.214 15.407 222.731 14.5368 223.525C13.6666 224.319 13.0524 225.354 12.7725 226.498H69.8691C73.6165 226.446 77.2403 225.15 80.1712 222.814C83.1021 220.479 85.1739 217.235 86.0612 213.594L94.1366 179.859C94.5033 178.492 94.5496 177.06 94.2718 175.673C93.994 174.286 93.3998 172.982 92.5353 171.862C91.6708 170.742 90.5595 169.837 89.2879 169.218C88.0163 168.598 86.6187 168.28 85.2042 168.289ZM29.2612 221.974H20.7161L22.1499 214.558C22.5212 212.622 23.5549 210.876 25.0735 209.619C26.5922 208.362 28.5011 207.672 30.4725 207.669H41.3167L39.9488 213.388C39.3704 215.801 38.0069 217.954 36.0725 219.508C34.138 221.062 31.7422 221.93 29.2612 221.974Z" fill="#E6E6E6"/>
<path d="M68.4683 226.5H70.9074L80.5073 270.701H78.0681L68.4683 226.5Z" fill="#E0E0E0"/>
<path d="M59.3132 226.5H61.7523L71.3522 270.701H68.9131L59.3132 226.5Z" fill="#E0E0E0"/>
<path d="M23.3774 226.5H20.9383L11.3384 270.701H13.7775L23.3774 226.5Z" fill="#E0E0E0"/>
<path d="M32.5324 226.5H30.0933L20.4934 270.701H22.9325L32.5324 226.5Z" fill="#E0E0E0"/>
<path d="M164.286 168.29H142.993C139.241 168.341 135.612 169.638 132.678 171.977C129.744 174.316 127.67 177.564 126.784 181.21L121.156 204.703L109.62 204.662C106.948 204.662 104.36 205.594 102.301 207.296C100.242 208.999 98.8412 211.366 98.339 213.99L96.7981 222.041C95.6343 222.218 94.549 222.736 93.6794 223.529C92.8097 224.323 92.1946 225.356 91.9116 226.499H148.975C152.724 226.447 156.349 225.151 159.281 222.815C162.213 220.48 164.287 217.236 165.176 213.594L173.251 179.859C173.618 178.49 173.664 177.055 173.385 175.665C173.105 174.275 172.508 172.969 171.64 171.849C170.772 170.729 169.656 169.824 168.38 169.207C167.104 168.589 165.703 168.275 164.286 168.29ZM108.343 221.975H99.7975L101.231 214.558C101.604 212.622 102.64 210.875 104.16 209.618C105.68 208.361 107.59 207.672 109.562 207.67H120.415L119.038 213.388C118.462 215.804 117.098 217.959 115.162 219.514C113.225 221.069 110.826 221.934 108.343 221.975Z" fill="#E6E6E6"/>
<path d="M147.55 226.5H149.997L159.597 270.701H157.158L147.55 226.5Z" fill="#E0E0E0"/>
<path d="M138.395 226.5H140.834L150.442 270.701H148.003L138.395 226.5Z" fill="#E0E0E0"/>
<path d="M102.467 226.5H100.028L90.4285 270.701H92.8676L102.467 226.5Z" fill="#E0E0E0"/>
<path d="M111.622 226.5H109.183L99.5833 270.701H102.022L111.622 226.5Z" fill="#E0E0E0"/>
<path d="M265.286 178.065H305.087L308.317 142.582H268.517L265.286 178.065Z" fill="#E6E6E6"/>
<path d="M263.935 178.065H303.735L306.957 142.582H267.165L263.935 178.065Z" fill="#F0F0F0"/>
<path d="M300.159 174.13L302.672 146.5H270.733L268.22 174.13H300.159Z" fill="white"/>
<path d="M256.074 152.148L253.717 178.064H272.785L275.15 152.148H256.074Z" fill="#E6E6E6"/>
<path d="M255.085 152.148L252.728 178.064H271.804L274.161 152.148H255.085Z" fill="#F0F0F0"/>
<path d="M257.697 155.016L255.859 175.188H269.192L271.03 155.016H257.697Z" fill="white"/>
<path d="M174.52 307.914C262.759 307.914 334.29 303.737 334.29 298.586C334.29 293.434 262.759 289.258 174.52 289.258C86.2815 289.258 14.75 293.434 14.75 298.586C14.75 303.737 86.2815 307.914 174.52 307.914Z" fill="#F5F5F5" fill-opacity="0.1"/>
<path d="M304.395 213.043H87.3219C86.0449 213.052 84.7796 212.799 83.6047 212.298C82.4298 211.797 81.3705 211.061 80.4925 210.133C79.6146 209.206 78.9368 208.108 78.5013 206.907C78.0658 205.707 77.8819 204.429 77.961 203.155L86.0612 37.5258C86.2112 34.8754 87.3613 32.3807 89.2792 30.5454C91.1972 28.71 93.74 27.6708 96.3944 27.6375H313.467C314.745 27.627 316.01 27.8798 317.186 28.3799C318.361 28.8801 319.421 29.617 320.299 30.5447C321.178 31.4723 321.855 32.5709 322.29 33.772C322.725 34.9731 322.908 36.2509 322.828 37.5258L314.728 203.155C314.576 205.804 313.425 208.298 311.508 210.133C309.59 211.968 307.048 213.008 304.395 213.043Z" fill="#FFD31F"/>
<path opacity="0.7" d="M304.395 213.043H87.3219C86.0449 213.052 84.7796 212.799 83.6047 212.298C82.4298 211.797 81.3705 211.061 80.4925 210.133C79.6146 209.206 78.9368 208.108 78.5013 206.907C78.0658 205.707 77.8819 204.429 77.961 203.155L86.0612 37.5258C86.2112 34.8754 87.3613 32.3807 89.2792 30.5454C91.1972 28.71 93.74 27.6708 96.3944 27.6375H313.467C314.745 27.627 316.01 27.8798 317.186 28.3799C318.361 28.8801 319.421 29.617 320.299 30.5447C321.178 31.4723 321.855 32.5709 322.29 33.772C322.725 34.9731 322.908 36.2509 322.828 37.5258L314.728 203.155C314.576 205.804 313.425 208.298 311.508 210.133C309.59 211.968 307.048 213.008 304.395 213.043Z" fill="white"/>
<path d="M321.872 29.4257C320.716 28.1449 319.273 27.1565 317.661 26.5416L317.958 25.767C319.685 26.437 321.233 27.4974 322.482 28.8653L321.872 29.4257Z" fill="#FFD31F"/>
<path d="M313.574 24.9688H296.22V25.7928H313.574V24.9688Z" fill="#FFD31F"/>
<path d="M313.467 27.6891H96.3946C93.7402 27.7225 91.1973 28.7617 89.2794 30.597C87.3614 32.4324 86.2113 34.9271 86.0613 37.5774H322.845C322.925 36.3011 322.742 35.0219 322.306 33.8197C321.87 32.6175 321.19 31.5182 320.31 30.5902C319.43 29.6623 318.368 28.9258 317.191 28.4266C316.014 27.9275 314.746 27.6764 313.467 27.6891Z" fill="#FFD31F"/>
<path d="M84.5862 201.871L92.1178 48.7096C92.1887 47.4748 92.726 46.3132 93.6209 45.4595C94.5159 44.6059 95.7016 44.1241 96.9383 44.1115H311.308C311.904 44.1047 312.494 44.2208 313.043 44.4524C313.592 44.684 314.087 45.0262 314.497 45.4576C314.908 45.8891 315.225 46.4005 315.429 46.96C315.633 47.5195 315.72 48.1151 315.684 48.7096L308.193 201.879C308.122 203.116 307.584 204.28 306.688 205.135C305.791 205.99 304.603 206.473 303.365 206.485H88.9617C88.3651 206.491 87.7736 206.374 87.2243 206.141C86.675 205.908 86.1796 205.564 85.769 205.131C85.3585 204.698 85.0416 204.185 84.838 203.624C84.6345 203.063 84.5488 202.466 84.5862 201.871Z" fill="white"/>
<path opacity="0.3" d="M115.009 96.6172H105.121C104.907 96.6198 104.694 96.5784 104.497 96.4956C104.3 96.4128 104.121 96.2904 103.973 96.136C103.825 95.9815 103.71 95.7983 103.635 95.5976C103.56 95.3969 103.528 95.183 103.539 94.9692L104.363 77.6647C104.392 77.2201 104.588 76.8031 104.912 76.4973C105.236 76.1916 105.664 76.0199 106.11 76.0166H115.998C116.213 76.013 116.426 76.0535 116.625 76.1358C116.823 76.2181 117.002 76.3403 117.152 76.4949C117.301 76.6495 117.417 76.8331 117.492 77.0343C117.567 77.2356 117.6 77.4502 117.588 77.6647L116.764 94.9692C116.735 95.4152 116.538 95.8334 116.212 96.1394C115.886 96.4453 115.456 96.6161 115.009 96.6172Z" fill="#FFD31F"/>
<path opacity="0.3" d="M134.802 96.6164H124.914C124.7 96.6177 124.488 96.5755 124.29 96.4924C124.093 96.4093 123.915 96.287 123.766 96.1329C123.617 95.9788 123.501 95.7962 123.425 95.596C123.349 95.3958 123.315 95.1823 123.324 94.9684L124.321 74.5325C124.354 74.0879 124.552 73.6719 124.877 73.3667C125.202 73.0616 125.63 72.8895 126.076 72.8845H135.964C136.178 72.8832 136.39 72.9254 136.588 73.0085C136.785 73.0916 136.964 73.2139 137.112 73.368C137.261 73.5221 137.377 73.7047 137.453 73.9049C137.529 74.1051 137.563 74.3186 137.555 74.5325L136.557 94.9684C136.524 95.413 136.326 95.829 136.001 96.1342C135.676 96.4393 135.248 96.6114 134.802 96.6164Z" fill="#FFD31F"/>
<path opacity="0.3" d="M154.595 96.6165H144.707C144.493 96.6178 144.281 96.5757 144.083 96.4926C143.886 96.4095 143.708 96.2871 143.559 96.1331C143.41 95.979 143.294 95.7963 143.218 95.5961C143.142 95.396 143.108 95.1824 143.117 94.9685L144.221 72.3985C144.254 71.9538 144.452 71.5378 144.777 71.2326C145.102 70.9275 145.53 70.7554 145.976 70.7504H155.864C156.078 70.7491 156.291 70.7913 156.488 70.8744C156.685 70.9575 156.864 71.0798 157.012 71.2339C157.161 71.388 157.277 71.5706 157.353 71.7708C157.429 71.971 157.464 72.1845 157.455 72.3985L156.392 94.9438C156.364 95.3999 156.162 95.8279 155.828 96.1393C155.494 96.4507 155.052 96.6216 154.595 96.6165Z" fill="#FFD31F"/>
<path opacity="0.3" d="M174.396 96.6185H164.508C164.294 96.6198 164.083 96.5776 163.886 96.4944C163.689 96.4112 163.511 96.2888 163.363 96.1346C163.215 95.9804 163.1 95.7976 163.025 95.5974C162.95 95.3973 162.916 95.184 162.926 94.9704L164.121 70.4639C164.154 70.0193 164.353 69.6033 164.678 69.2981C165.003 68.9929 165.43 68.8209 165.876 68.8159H175.764C175.978 68.8146 176.191 68.8568 176.388 68.9399C176.585 69.023 176.764 69.1453 176.912 69.2994C177.061 69.4534 177.177 69.6361 177.253 69.8363C177.329 70.0365 177.364 70.25 177.355 70.4639L176.168 94.9457C176.145 95.3989 175.948 95.8257 175.618 96.1373C175.288 96.4488 174.85 96.6212 174.396 96.6185Z" fill="#FFD31F"/>
<path d="M194.189 96.6182H184.301C184.087 96.6195 183.875 96.5773 183.678 96.4942C183.48 96.4111 183.302 96.2888 183.153 96.1347C183.004 95.9806 182.889 95.798 182.813 95.5978C182.737 95.3976 182.702 95.1841 182.711 94.9702L184.276 62.9898C184.308 62.5445 184.506 62.1274 184.831 61.8218C185.157 61.5162 185.585 61.3448 186.032 61.3417H195.92C196.134 61.3404 196.346 61.3826 196.544 61.4657C196.741 61.5488 196.919 61.6711 197.068 61.8252C197.217 61.9793 197.333 62.1619 197.409 62.3621C197.485 62.5623 197.519 62.7758 197.51 62.9898L195.945 94.9454C195.918 95.3944 195.722 95.8166 195.396 96.1269C195.07 96.4372 194.639 96.6128 194.189 96.6182Z" fill="#FFD31F"/>
<path d="M191.61 57.904L192.55 56.4043C192.602 56.3232 192.631 56.2297 192.634 56.1335C192.637 56.0373 192.614 55.9421 192.568 55.8578C192.521 55.7735 192.453 55.7032 192.37 55.6544C192.287 55.6055 192.193 55.5799 192.097 55.5803H190.358C190.26 55.5769 190.164 55.6003 190.078 55.6479C189.993 55.6955 189.922 55.7655 189.874 55.8503C189.826 55.9352 189.801 56.0317 189.804 56.1293C189.806 56.2269 189.836 56.322 189.888 56.4043L190.712 57.904C190.759 57.9807 190.825 58.044 190.904 58.088C190.983 58.1319 191.071 58.1549 191.161 58.1549C191.251 58.1549 191.34 58.1319 191.419 58.088C191.497 58.044 191.563 57.9807 191.61 57.904Z" fill="#263238"/>
<path opacity="0.3" d="M213.983 96.6191H204.094C203.88 96.6204 203.668 96.5782 203.471 96.4951C203.273 96.412 203.095 96.2897 202.946 96.1356C202.798 95.9816 202.682 95.7989 202.606 95.5987C202.53 95.3985 202.495 95.185 202.504 94.9711L203.823 68.0337C203.856 67.5891 204.054 67.1731 204.379 66.8679C204.704 66.5627 205.132 66.3906 205.578 66.3857H215.466C215.68 66.3844 215.892 66.4265 216.09 66.5096C216.287 66.5927 216.465 66.715 216.614 66.8691C216.763 67.0232 216.879 67.2059 216.955 67.4061C217.031 67.6062 217.065 67.8198 217.056 68.0337L215.721 94.9463C215.696 95.3932 215.503 95.8141 215.181 96.1244C214.858 96.4347 214.43 96.6115 213.983 96.6191Z" fill="#FFD31F"/>
<path opacity="0.1" d="M214.848 101.989H103.761C103.691 101.99 103.62 101.977 103.555 101.95C103.49 101.923 103.431 101.882 103.382 101.831C103.334 101.78 103.296 101.719 103.272 101.653C103.248 101.586 103.237 101.516 103.242 101.445C103.252 101.299 103.317 101.161 103.424 101.061C103.531 100.96 103.672 100.903 103.819 100.901H214.897C214.968 100.9 215.038 100.913 215.103 100.941C215.169 100.968 215.227 101.008 215.276 101.059C215.325 101.111 215.363 101.171 215.387 101.238C215.411 101.304 215.421 101.375 215.416 101.445C215.41 101.592 215.347 101.73 215.241 101.831C215.135 101.933 214.994 101.989 214.848 101.989Z" fill="#263238"/>
<path opacity="0.1" d="M222.759 198.336L229.911 52.2366C229.918 52.0967 229.978 51.9646 230.079 51.8679C230.18 51.7712 230.315 51.7173 230.455 51.7174H230.504C230.572 51.7161 230.639 51.7289 230.701 51.7548C230.763 51.7808 230.819 51.8194 230.866 51.8682C230.912 51.917 230.948 51.975 230.971 52.0384C230.994 52.1018 231.003 52.1693 230.999 52.2366L223.855 198.336C223.846 198.476 223.786 198.608 223.685 198.706C223.585 198.803 223.451 198.86 223.311 198.863H223.253C223.186 198.862 223.119 198.848 223.057 198.821C222.996 198.793 222.94 198.754 222.894 198.705C222.848 198.655 222.812 198.597 222.789 198.534C222.766 198.471 222.755 198.403 222.759 198.336Z" fill="#263238"/>
<path d="M259.436 79.4449C258.684 83.403 259.386 87.4997 261.414 90.9812L256.519 94.0301C253.836 89.4036 252.903 83.9677 253.89 78.7115C254.906 73.3304 257.699 68.446 261.821 64.8409C265.944 61.2357 271.156 59.1183 276.625 58.8278V64.4476C272.491 64.6511 268.546 66.2417 265.427 68.9628C262.309 71.6839 260.198 75.3766 259.436 79.4449Z" fill="#FFD31F"/>
<path opacity="0.3" d="M298.124 72.9841L292.817 75.1266C291.8 72.3273 290.032 69.8622 287.706 68.0016C285.38 66.1411 282.587 64.9569 279.633 64.5791C278.639 64.4424 277.635 64.3955 276.633 64.439V58.8191C281.253 58.6047 285.822 59.8602 289.683 62.4053C293.544 64.9504 296.5 68.6541 298.124 72.9841Z" fill="#FFD31F"/>
<path d="M299.063 84.7502C296.789 97.2259 284.725 106.117 272.332 104.461C269.075 104.042 265.958 102.884 263.217 101.076C260.477 99.2677 258.186 96.8573 256.519 94.0287L261.414 91.0127C262.668 93.1507 264.395 94.9726 266.464 96.3383C268.532 97.704 270.887 98.5771 273.345 98.8904C277.961 99.4337 282.611 98.2046 286.356 95.4513C290.1 92.698 292.66 88.6259 293.517 84.058C294.075 81.0855 293.825 78.0177 292.792 75.175L298.099 73.0325C299.452 76.7841 299.785 80.8278 299.063 84.7502Z" fill="#263238"/>
<path d="M259.296 62.4874C259.239 62.4883 259.183 62.4779 259.131 62.4566C259.078 62.4354 259.031 62.4038 258.991 62.3638L255.34 58.5156H242.799C242.689 58.5156 242.585 58.4721 242.507 58.3949C242.43 58.3176 242.387 58.2128 242.387 58.1035C242.387 57.9943 242.43 57.8895 242.507 57.8122C242.585 57.7349 242.689 57.6915 242.799 57.6915H255.513C255.569 57.6913 255.625 57.7029 255.676 57.7256C255.727 57.7483 255.773 57.7817 255.81 57.8234L259.592 61.7952C259.651 61.8521 259.69 61.9254 259.706 62.0053C259.722 62.0852 259.713 62.168 259.681 62.2429C259.649 62.3178 259.595 62.3812 259.526 62.4248C259.457 62.4684 259.377 62.4902 259.296 62.4874Z" fill="#263238"/>
<path opacity="0.3" d="M283.151 127.617C279.708 125.487 275.608 124.681 271.615 125.351L271.005 119.789C276.284 118.931 281.696 119.996 286.258 122.788C295.479 128.507 298.964 140.324 294.498 150.665L289.348 148.655C292.702 140.999 290.254 132.018 283.151 127.617Z" fill="#FFD31F"/>
<path d="M271.978 165.367L272.357 159.739C275.444 159.77 278.489 159.017 281.207 157.551C283.925 156.086 286.227 153.955 287.898 151.359C288.46 150.501 288.948 149.597 289.356 148.656L294.506 150.667C293.967 151.917 293.322 153.119 292.578 154.259C290.358 157.696 287.305 160.516 283.704 162.458C280.102 164.4 276.069 165.4 271.978 165.367Z" fill="#263238"/>
<path d="M260.721 162.095C250.256 155.61 247.422 141.395 254.434 130.617C256.29 127.751 258.727 125.307 261.587 123.442C264.447 121.577 267.667 120.332 271.038 119.789L271.648 125.352C269.103 125.758 266.672 126.695 264.513 128.102C262.353 129.508 260.514 131.354 259.114 133.518C253.791 141.709 255.917 152.347 263.861 157.274C266.414 158.857 269.352 159.712 272.357 159.746L271.977 165.375C267.998 165.32 264.107 164.187 260.721 162.095Z" fill="#FFD31F"/>
<path d="M256.321 123.209C256.209 123.206 256.102 123.159 256.024 123.078L252.366 119.229H239.824C239.715 119.229 239.61 119.186 239.533 119.109C239.456 119.031 239.412 118.927 239.412 118.817C239.412 118.708 239.456 118.603 239.533 118.526C239.61 118.449 239.715 118.405 239.824 118.405H252.547C252.659 118.409 252.766 118.456 252.844 118.537L256.618 122.509C256.656 122.547 256.687 122.593 256.708 122.643C256.729 122.693 256.74 122.747 256.74 122.802C256.74 122.856 256.729 122.91 256.708 122.96C256.687 123.01 256.656 123.056 256.618 123.094C256.536 123.168 256.431 123.209 256.321 123.209Z" fill="#263238"/>
<path d="M245.436 185.834H241.266C240.702 185.843 240.163 186.065 239.755 186.454C239.347 186.843 239.101 187.372 239.066 187.935L238.86 192.113C238.844 192.385 238.884 192.657 238.978 192.912C239.072 193.168 239.217 193.401 239.405 193.598C239.593 193.795 239.819 193.952 240.07 194.058C240.32 194.164 240.59 194.217 240.862 194.214H245.032C245.597 194.207 246.139 193.986 246.548 193.597C246.958 193.207 247.205 192.677 247.24 192.113L247.446 187.935C247.461 187.663 247.42 187.391 247.325 187.135C247.23 186.88 247.084 186.646 246.896 186.449C246.708 186.252 246.481 186.096 246.23 185.99C245.978 185.884 245.708 185.831 245.436 185.834Z" fill="#FFD31F"/>
<path d="M268.822 185.835H264.652C264.081 185.842 263.535 186.068 263.125 186.464C262.714 186.861 262.471 187.399 262.444 187.969L262.246 192.147C262.23 192.418 262.27 192.689 262.363 192.944C262.456 193.199 262.601 193.432 262.788 193.629C262.975 193.826 263.2 193.983 263.45 194.089C263.7 194.196 263.968 194.25 264.24 194.248H268.459C269.023 194.239 269.562 194.017 269.97 193.628C270.378 193.238 270.624 192.71 270.659 192.147L270.865 187.969C270.886 187.691 270.848 187.412 270.754 187.149C270.66 186.887 270.512 186.647 270.319 186.446C270.126 186.245 269.893 186.086 269.635 185.981C269.377 185.876 269.1 185.826 268.822 185.835Z" fill="#263238"/>
<path opacity="0.3" d="M292.215 185.834H288.038C287.474 185.843 286.934 186.064 286.526 186.454C286.119 186.843 285.873 187.372 285.838 187.935L285.632 192.113C285.616 192.384 285.656 192.655 285.749 192.91C285.842 193.165 285.987 193.398 286.174 193.595C286.36 193.792 286.586 193.949 286.836 194.055C287.085 194.162 287.354 194.216 287.626 194.214H291.803C292.372 194.206 292.916 193.982 293.325 193.587C293.734 193.192 293.976 192.656 294.004 192.088L294.21 187.91C294.222 187.641 294.179 187.373 294.085 187.121C293.99 186.868 293.845 186.638 293.658 186.444C293.472 186.25 293.248 186.096 293 185.991C292.752 185.886 292.485 185.832 292.215 185.834Z" fill="#FFD31F"/>
<path d="M132.917 131.725C132.952 131.035 133.128 130.523 133.446 130.19C133.768 129.858 134.188 129.691 134.707 129.691C135.244 129.691 135.655 129.858 135.94 130.19C136.228 130.52 136.355 131.031 136.321 131.725C136.286 132.415 136.108 132.926 135.786 133.259C135.468 133.591 135.049 133.758 134.53 133.758C133.994 133.758 133.581 133.593 133.293 133.264C133.008 132.931 132.883 132.418 132.917 131.725ZM134.07 131.714C134.045 132.215 134.086 132.551 134.193 132.723C134.274 132.849 134.392 132.912 134.546 132.912C134.704 132.912 134.83 132.849 134.924 132.723C135.045 132.551 135.118 132.215 135.143 131.714C135.168 131.213 135.129 130.879 135.025 130.711C134.944 130.581 134.824 130.516 134.666 130.516C134.512 130.516 134.388 130.579 134.294 130.705C134.17 130.877 134.095 131.213 134.07 131.714ZM135.427 137.819H134.333L138.847 129.691H139.91L135.427 137.819ZM137.916 135.796C137.951 135.106 138.127 134.595 138.445 134.262C138.767 133.929 139.191 133.763 139.717 133.763C140.246 133.763 140.654 133.929 140.939 134.262C141.227 134.595 141.354 135.106 141.32 135.796C141.285 136.49 141.107 137.003 140.785 137.336C140.467 137.668 140.048 137.835 139.529 137.835C138.993 137.835 138.58 137.668 138.292 137.336C138.007 137.003 137.881 136.49 137.916 135.796ZM139.068 135.791C139.043 136.292 139.085 136.626 139.192 136.794C139.273 136.924 139.391 136.989 139.545 136.989C139.703 136.989 139.827 136.926 139.918 136.8C140.042 136.628 140.117 136.292 140.142 135.791C140.167 135.29 140.127 134.954 140.024 134.782C139.942 134.656 139.823 134.593 139.665 134.593C139.507 134.593 139.383 134.656 139.292 134.782C139.168 134.954 139.093 135.29 139.068 135.791Z" fill="#263238"/>
<path d="M146.297 149.066H146.199C146.146 149.054 146.096 149.032 146.051 149.001C146.007 148.969 145.97 148.929 145.941 148.883C145.913 148.837 145.894 148.786 145.886 148.732C145.878 148.678 145.88 148.624 145.894 148.571C148.679 136.862 154.587 124.864 161.55 124.477C166.206 124.213 168.859 128.102 171.933 132.593C174.158 135.832 176.671 139.499 180.354 142.267C182.892 144.171 185.48 144.665 188.051 143.742C193.778 141.674 199.257 132.354 202.356 119.425C202.369 119.371 202.392 119.32 202.425 119.275C202.458 119.23 202.499 119.192 202.546 119.163C202.594 119.134 202.647 119.115 202.702 119.106C202.756 119.097 202.813 119.099 202.867 119.112C202.921 119.125 202.972 119.149 203.017 119.182C203.062 119.214 203.1 119.255 203.129 119.303C203.158 119.35 203.178 119.403 203.186 119.458C203.195 119.513 203.193 119.569 203.18 119.623C199.974 133.014 194.429 142.325 188.347 144.517C185.496 145.539 182.645 145.003 179.876 142.927C176.086 140.084 173.531 136.334 171.274 133.038C168.208 128.572 165.802 125.054 161.616 125.276C155.115 125.639 149.47 137.323 146.784 148.736C146.774 148.79 146.753 148.841 146.723 148.887C146.694 148.933 146.655 148.972 146.61 149.003C146.564 149.033 146.513 149.055 146.46 149.066C146.406 149.076 146.351 149.076 146.297 149.066Z" fill="#FFD31F"/>
<path opacity="0.1" d="M206.657 154.768H106.827C105.974 154.774 105.128 154.605 104.343 154.271C103.558 153.938 102.849 153.447 102.261 152.83C101.673 152.212 101.217 151.481 100.923 150.68C100.628 149.88 100.5 149.027 100.547 148.176L102.006 119.104C102.104 117.336 102.87 115.672 104.149 114.448C105.428 113.224 107.125 112.532 108.895 112.512H208.684C209.537 112.506 210.382 112.675 211.167 113.008C211.953 113.342 212.661 113.832 213.249 114.45C213.838 115.067 214.293 115.799 214.588 116.6C214.883 117.4 215.01 118.252 214.963 119.104L213.546 148.167C213.45 149.936 212.685 151.603 211.405 152.828C210.126 154.054 208.429 154.747 206.657 154.768ZM108.854 113.361C107.301 113.378 105.813 113.983 104.688 115.053C103.563 116.123 102.884 117.579 102.789 119.129L101.371 148.192C101.323 148.936 101.428 149.681 101.681 150.383C101.933 151.084 102.328 151.725 102.84 152.267C103.352 152.808 103.971 153.238 104.657 153.529C105.343 153.821 106.081 153.968 106.827 153.96H206.657C208.21 153.942 209.698 153.338 210.823 152.268C211.948 151.198 212.626 149.742 212.722 148.192L214.147 119.129C214.194 118.385 214.087 117.64 213.832 116.939C213.578 116.238 213.183 115.598 212.67 115.057C212.158 114.515 211.539 114.086 210.854 113.794C210.168 113.502 209.429 113.355 208.684 113.361H108.854Z" fill="#263238"/>
<path opacity="0.1" d="M128.424 120.779H112.29C112.044 120.78 111.801 120.73 111.576 120.633C111.35 120.536 111.146 120.394 110.977 120.216C110.808 120.038 110.678 119.827 110.593 119.597C110.508 119.366 110.472 119.121 110.485 118.876C110.512 118.374 110.729 117.902 111.092 117.555C111.455 117.207 111.936 117.011 112.438 117.005H128.564C128.81 117.004 129.054 117.053 129.281 117.149C129.508 117.245 129.712 117.387 129.882 117.565C130.052 117.744 130.183 117.955 130.268 118.186C130.354 118.417 130.391 118.663 130.377 118.909C130.348 119.41 130.13 119.881 129.768 120.228C129.406 120.575 128.926 120.772 128.424 120.779ZM112.438 117.829C112.149 117.835 111.872 117.949 111.663 118.149C111.454 118.349 111.328 118.62 111.309 118.909C111.299 119.044 111.317 119.18 111.363 119.307C111.408 119.435 111.48 119.552 111.573 119.65C111.666 119.746 111.778 119.822 111.901 119.874C112.024 119.927 112.156 119.954 112.29 119.955H128.424C128.713 119.948 128.988 119.833 129.197 119.633C129.406 119.434 129.533 119.164 129.553 118.876C129.562 118.74 129.542 118.604 129.495 118.476C129.448 118.349 129.375 118.232 129.281 118.134C129.19 118.036 129.079 117.958 128.955 117.905C128.832 117.853 128.698 117.827 128.564 117.829H112.438Z" fill="#263238"/>
<path d="M113.79 145.286H109.603L109.397 149.472H113.584L113.79 145.286Z" fill="#FFD31F"/>
<path opacity="0.3" d="M118.379 198.821H109.842C109.473 198.824 109.108 198.751 108.768 198.607C108.428 198.463 108.121 198.251 107.866 197.984C107.611 197.717 107.414 197.4 107.286 197.054C107.158 196.708 107.103 196.339 107.123 195.97L107.543 187.425C107.589 186.659 107.923 185.938 108.478 185.408C109.032 184.878 109.767 184.577 110.535 184.566H119.08C119.449 184.563 119.816 184.636 120.156 184.78C120.496 184.925 120.802 185.138 121.057 185.406C121.311 185.674 121.507 185.992 121.634 186.339C121.76 186.687 121.813 187.056 121.791 187.425L121.379 195.97C121.329 196.735 120.993 197.454 120.437 197.982C119.881 198.511 119.146 198.81 118.379 198.821Z" fill="#FFD31F"/>
<path opacity="0.1" d="M151.134 194.158H129.108C128.788 194.16 128.471 194.097 128.176 193.973C127.881 193.848 127.615 193.664 127.394 193.432C127.173 193.201 127.002 192.926 126.892 192.626C126.781 192.325 126.733 192.005 126.752 191.686C126.783 191.025 127.066 190.4 127.542 189.941C128.019 189.481 128.652 189.221 129.314 189.214H151.332C151.652 189.212 151.969 189.276 152.264 189.401C152.559 189.526 152.825 189.71 153.046 189.941C153.267 190.172 153.439 190.446 153.551 190.746C153.663 191.046 153.713 191.366 153.697 191.686C153.666 192.347 153.383 192.971 152.906 193.43C152.43 193.89 151.796 194.15 151.134 194.158ZM129.314 190.038C128.87 190.045 128.444 190.218 128.121 190.523C127.798 190.828 127.6 191.242 127.567 191.686C127.558 191.895 127.59 192.104 127.662 192.301C127.734 192.497 127.845 192.678 127.988 192.831C128.133 192.981 128.307 193.1 128.5 193.181C128.692 193.262 128.899 193.302 129.108 193.301H151.134C151.579 193.297 152.006 193.125 152.329 192.819C152.651 192.514 152.846 192.097 152.873 191.653C152.888 191.443 152.858 191.232 152.785 191.035C152.713 190.838 152.6 190.658 152.453 190.507C152.309 190.355 152.135 190.234 151.942 190.151C151.75 190.069 151.542 190.028 151.332 190.029L129.314 190.038Z" fill="#263238"/>
<path d="M114.366 194.158C114.312 194.156 114.259 194.143 114.21 194.121C114.161 194.098 114.116 194.066 114.08 194.026C114.043 193.986 114.014 193.94 113.996 193.889C113.977 193.838 113.969 193.784 113.971 193.73L114.152 190.079C114.152 190.025 114.163 189.971 114.185 189.921C114.207 189.871 114.239 189.826 114.28 189.79C114.32 189.753 114.368 189.726 114.42 189.709C114.472 189.692 114.526 189.686 114.581 189.692C114.635 189.694 114.688 189.707 114.737 189.73C114.786 189.752 114.83 189.785 114.867 189.824C114.904 189.864 114.932 189.911 114.951 189.962C114.97 190.012 114.978 190.066 114.976 190.121L114.795 193.771C114.788 193.879 114.74 193.98 114.66 194.052C114.58 194.125 114.474 194.163 114.366 194.158Z" fill="#FFD31F"/>
<path d="M112.793 191.742C112.68 191.739 112.574 191.691 112.496 191.61C112.457 191.572 112.427 191.526 112.406 191.476C112.385 191.426 112.374 191.372 112.374 191.318C112.374 191.263 112.385 191.21 112.406 191.159C112.427 191.109 112.457 191.064 112.496 191.025L114.259 189.377C114.339 189.301 114.446 189.26 114.556 189.262C114.665 189.269 114.768 189.316 114.844 189.394L116.443 191.042C116.518 191.122 116.559 191.228 116.556 191.338C116.553 191.447 116.506 191.551 116.426 191.627C116.347 191.702 116.24 191.743 116.131 191.74C116.021 191.737 115.917 191.69 115.841 191.61L114.531 190.226L113.064 191.627C112.99 191.695 112.894 191.736 112.793 191.742Z" fill="#FFD31F"/>
<path d="M110.71 174.695L110.82 172.494C110.143 172.298 109.653 172.002 109.35 171.606C109.051 171.207 108.915 170.723 108.944 170.156C108.972 169.581 109.177 169.1 109.558 168.711C109.942 168.319 110.437 168.093 111.043 168.033L111.069 167.513H111.832L111.806 168.033C112.36 168.1 112.794 168.291 113.108 168.606C113.422 168.918 113.612 169.336 113.677 169.862L112.337 170.035C112.277 169.622 112.081 169.341 111.748 169.194L111.645 171.249C112.476 171.476 113.034 171.772 113.321 172.137C113.608 172.497 113.737 172.961 113.709 173.529C113.677 174.163 113.458 174.697 113.05 175.131C112.646 175.565 112.1 175.832 111.411 175.93L111.362 176.912H110.599L110.647 175.956C110.044 175.882 109.563 175.657 109.203 175.278C108.843 174.9 108.628 174.366 108.557 173.676L109.937 173.529C109.98 173.809 110.073 174.051 110.217 174.254C110.361 174.457 110.525 174.604 110.71 174.695ZM110.986 169.179C110.776 169.249 110.605 169.368 110.474 169.536C110.343 169.704 110.272 169.89 110.262 170.093C110.253 170.278 110.3 170.452 110.404 170.613C110.508 170.771 110.672 170.898 110.895 170.996L110.986 169.179ZM111.469 174.769C111.735 174.72 111.955 174.599 112.129 174.406C112.304 174.21 112.398 173.981 112.411 173.718C112.423 173.483 112.363 173.282 112.231 173.114C112.102 172.942 111.883 172.811 111.572 172.72L111.469 174.769ZM114.585 173.791L116.024 173.618C116.052 173.982 116.161 174.261 116.351 174.453C116.541 174.646 116.778 174.742 117.062 174.742C117.368 174.742 117.629 174.627 117.848 174.396C118.07 174.164 118.191 173.853 118.21 173.46C118.229 173.089 118.143 172.795 117.954 172.578C117.765 172.361 117.527 172.252 117.24 172.252C117.05 172.252 116.822 172.289 116.555 172.362L116.779 171.159C117.178 171.17 117.487 171.084 117.707 170.902C117.927 170.716 118.044 170.471 118.059 170.166C118.072 169.907 118.005 169.7 117.859 169.546C117.712 169.392 117.511 169.315 117.255 169.315C117.002 169.315 116.782 169.403 116.595 169.578C116.407 169.753 116.286 170.009 116.23 170.345L114.879 170.114C114.997 169.648 115.158 169.277 115.361 169C115.568 168.72 115.845 168.501 116.194 168.343C116.545 168.182 116.933 168.102 117.358 168.102C118.084 168.102 118.654 168.333 119.069 168.795C119.412 169.173 119.571 169.601 119.547 170.077C119.513 170.753 119.116 171.292 118.356 171.695C118.793 171.79 119.135 172.002 119.382 172.331C119.632 172.66 119.745 173.058 119.722 173.524C119.688 174.199 119.412 174.776 118.894 175.252C118.376 175.728 117.748 175.967 117.012 175.967C116.314 175.967 115.745 175.767 115.306 175.368C114.866 174.965 114.626 174.439 114.585 173.791ZM125.593 174.464L125.524 175.835H120.343C120.425 175.317 120.618 174.826 120.921 174.364C121.225 173.898 121.81 173.282 122.676 172.515C123.373 171.895 123.803 171.475 123.965 171.254C124.183 170.949 124.3 170.648 124.315 170.35C124.332 170.021 124.255 169.769 124.085 169.594C123.918 169.415 123.679 169.326 123.367 169.326C123.058 169.326 122.808 169.419 122.617 169.604C122.425 169.79 122.304 170.098 122.255 170.529L120.789 170.382C120.917 169.569 121.222 168.986 121.702 168.632C122.183 168.278 122.771 168.102 123.465 168.102C124.226 168.102 124.814 168.306 125.228 168.716C125.642 169.126 125.834 169.636 125.804 170.245C125.786 170.592 125.707 170.923 125.565 171.238C125.426 171.55 125.214 171.877 124.927 172.221C124.736 172.448 124.397 172.776 123.909 173.203C123.422 173.63 123.111 173.914 122.978 174.054C122.848 174.194 122.741 174.331 122.658 174.464H125.593ZM126.579 173.791L128.018 173.618C128.045 173.982 128.154 174.261 128.345 174.453C128.535 174.646 128.772 174.742 129.056 174.742C129.361 174.742 129.623 174.627 129.841 174.396C130.063 174.164 130.184 173.853 130.204 173.46C130.222 173.089 130.137 172.795 129.948 172.578C129.759 172.361 129.521 172.252 129.233 172.252C129.044 172.252 128.816 172.289 128.549 172.362L128.772 171.159C129.172 171.17 129.481 171.084 129.7 170.902C129.92 170.716 130.038 170.471 130.053 170.166C130.066 169.907 129.999 169.7 129.852 169.546C129.706 169.392 129.505 169.315 129.249 169.315C128.996 169.315 128.776 169.403 128.588 169.578C128.401 169.753 128.279 170.009 128.224 170.345L126.873 170.114C126.991 169.648 127.152 169.277 127.355 169C127.562 168.72 127.839 168.501 128.187 168.343C128.539 168.182 128.927 168.102 129.351 168.102C130.077 168.102 130.648 168.333 131.063 168.795C131.405 169.173 131.565 169.601 131.541 170.077C131.507 170.753 131.11 171.292 130.35 171.695C130.787 171.79 131.129 172.002 131.375 172.331C131.626 172.66 131.739 173.058 131.716 173.524C131.682 174.199 131.406 174.776 130.887 175.252C130.369 175.728 129.742 175.967 129.005 175.967C128.307 175.967 127.739 175.767 127.299 175.368C126.86 174.965 126.62 174.439 126.579 173.791ZM132.878 174.359H134.357L134.304 175.415C134.282 175.842 134.229 176.178 134.143 176.424C134.057 176.672 133.905 176.895 133.689 177.091C133.476 177.287 133.208 177.441 132.887 177.553L132.628 176.944C132.931 176.846 133.15 176.711 133.285 176.539C133.42 176.368 133.498 176.133 133.52 175.835H132.805L132.878 174.359ZM138.41 168.102C139.157 168.102 139.727 168.368 140.121 168.9C140.591 169.531 140.79 170.576 140.717 172.037C140.644 173.494 140.339 174.541 139.802 175.178C139.359 175.704 138.763 175.967 138.016 175.967C137.266 175.967 136.675 175.679 136.245 175.105C135.814 174.527 135.636 173.499 135.71 172.021C135.782 170.571 136.087 169.527 136.624 168.89C137.067 168.364 137.663 168.102 138.41 168.102ZM138.348 169.326C138.17 169.326 138.007 169.384 137.861 169.499C137.715 169.611 137.596 169.814 137.504 170.109C137.384 170.49 137.301 171.133 137.255 172.037C137.21 172.94 137.225 173.562 137.299 173.902C137.373 174.238 137.476 174.462 137.607 174.574C137.742 174.686 137.899 174.742 138.078 174.742C138.256 174.742 138.419 174.686 138.565 174.574C138.711 174.459 138.83 174.254 138.922 173.96C139.042 173.581 139.125 172.94 139.17 172.037C139.215 171.133 139.201 170.513 139.126 170.177C139.052 169.837 138.948 169.611 138.813 169.499C138.682 169.384 138.527 169.326 138.348 169.326ZM141.832 169.609L141.901 168.238H146.956L146.903 169.31C146.465 169.72 146.011 170.308 145.541 171.075C145.072 171.842 144.701 172.658 144.43 173.524C144.162 174.385 144.013 175.156 143.983 175.835H142.557C142.635 174.77 142.909 173.685 143.378 172.578C143.85 171.471 144.456 170.482 145.194 169.609H141.832ZM148.993 171.679C148.619 171.518 148.351 171.298 148.19 171.017C148.032 170.734 147.962 170.424 147.979 170.088C148.008 169.513 148.231 169.039 148.65 168.664C149.072 168.289 149.653 168.102 150.393 168.102C151.126 168.102 151.684 168.289 152.069 168.664C152.457 169.039 152.637 169.513 152.608 170.088C152.59 170.445 152.481 170.764 152.281 171.044C152.082 171.32 151.81 171.532 151.466 171.679C151.885 171.851 152.197 172.101 152.401 172.431C152.609 172.76 152.703 173.14 152.681 173.571C152.646 174.282 152.389 174.86 151.911 175.305C151.436 175.749 150.822 175.972 150.068 175.972C149.366 175.972 148.792 175.788 148.343 175.42C147.815 174.986 147.569 174.39 147.607 173.634C147.628 173.217 147.75 172.835 147.975 172.489C148.199 172.138 148.539 171.869 148.993 171.679ZM149.373 170.193C149.358 170.487 149.429 170.716 149.586 170.881C149.746 171.045 149.964 171.128 150.241 171.128C150.522 171.128 150.751 171.045 150.927 170.881C151.104 170.713 151.2 170.482 151.214 170.187C151.228 169.911 151.155 169.69 150.995 169.525C150.838 169.357 150.623 169.273 150.35 169.273C150.066 169.273 149.835 169.357 149.659 169.525C149.482 169.693 149.387 169.916 149.373 170.193ZM149.071 173.492C149.051 173.898 149.138 174.215 149.334 174.443C149.533 174.671 149.789 174.784 150.101 174.784C150.406 174.784 150.664 174.676 150.874 174.459C151.085 174.238 151.201 173.921 151.222 173.508C151.24 173.147 151.153 172.858 150.96 172.641C150.768 172.42 150.515 172.31 150.203 172.31C149.842 172.31 149.566 172.434 149.375 172.683C149.187 172.932 149.086 173.201 149.071 173.492ZM153.83 175.835L153.904 174.359H155.382L155.308 175.835H153.83ZM159.398 168.102C160.145 168.102 160.716 168.368 161.11 168.9C161.58 169.531 161.779 170.576 161.706 172.037C161.633 173.494 161.328 174.541 160.791 175.178C160.347 175.704 159.752 175.967 159.005 175.967C158.255 175.967 157.664 175.679 157.233 175.105C156.803 174.527 156.625 173.499 156.699 172.021C156.771 170.571 157.076 169.527 157.613 168.89C158.056 168.364 158.651 168.102 159.398 168.102ZM159.337 169.326C159.158 169.326 158.996 169.384 158.85 169.499C158.704 169.611 158.585 169.814 158.493 170.109C158.372 170.49 158.29 171.133 158.244 172.037C158.199 172.94 158.214 173.562 158.288 173.902C158.362 174.238 158.465 174.462 158.596 174.574C158.731 174.686 158.888 174.742 159.066 174.742C159.245 174.742 159.408 174.686 159.554 174.574C159.7 174.459 159.819 174.254 159.91 173.96C160.031 173.581 160.114 172.94 160.159 172.037C160.204 171.133 160.19 170.513 160.115 170.177C160.041 169.837 159.937 169.611 159.802 169.499C159.671 169.384 159.516 169.326 159.337 169.326ZM165.395 168.102C166.142 168.102 166.713 168.368 167.107 168.9C167.577 169.531 167.775 170.576 167.702 172.037C167.63 173.494 167.325 174.541 166.788 175.178C166.344 175.704 165.749 175.967 165.002 175.967C164.252 175.967 163.661 175.679 163.23 175.105C162.8 174.527 162.621 173.499 162.695 172.021C162.768 170.571 163.073 169.527 163.609 168.89C164.053 168.364 164.648 168.102 165.395 168.102ZM165.334 169.326C165.155 169.326 164.993 169.384 164.847 169.499C164.701 169.611 164.582 169.814 164.49 170.109C164.369 170.49 164.286 171.133 164.241 172.037C164.196 172.94 164.21 173.562 164.285 173.902C164.359 174.238 164.462 174.462 164.593 174.574C164.728 174.686 164.884 174.742 165.063 174.742C165.242 174.742 165.404 174.686 165.55 174.574C165.696 174.459 165.815 174.254 165.907 173.96C166.028 173.581 166.111 172.94 166.156 172.037C166.201 171.133 166.186 170.513 166.112 170.177C166.038 169.837 165.934 169.611 165.799 169.499C165.668 169.384 165.513 169.326 165.334 169.326Z" fill="#263238"/>
<path opacity="0.4" d="M174.71 184.566H166.173C165.405 184.577 164.669 184.877 164.113 185.407C163.557 185.938 163.221 186.658 163.173 187.425L162.761 195.97C162.74 196.338 162.794 196.707 162.921 197.053C163.048 197.4 163.245 197.716 163.499 197.983C163.753 198.251 164.059 198.463 164.399 198.607C164.738 198.751 165.104 198.824 165.472 198.821H174.018C174.784 198.81 175.517 198.51 176.072 197.982C176.627 197.453 176.961 196.735 177.009 195.97L177.429 187.425C177.45 187.056 177.396 186.686 177.269 186.339C177.141 185.991 176.944 185.674 176.689 185.406C176.434 185.138 176.127 184.925 175.787 184.78C175.446 184.636 175.08 184.563 174.71 184.566Z" fill="#263238"/>
<path opacity="0.1" d="M206.764 194.158H184.746C184.426 194.159 184.109 194.095 183.815 193.97C183.52 193.845 183.254 193.661 183.032 193.43C182.811 193.199 182.639 192.925 182.527 192.625C182.415 192.325 182.366 192.005 182.381 191.686C182.413 191.024 182.696 190.4 183.172 189.941C183.648 189.481 184.282 189.221 184.944 189.214H206.97C207.29 189.213 207.607 189.278 207.901 189.403C208.195 189.529 208.461 189.713 208.682 189.944C208.903 190.175 209.075 190.448 209.187 190.748C209.299 191.047 209.35 191.366 209.335 191.686C209.302 192.347 209.017 192.972 208.54 193.431C208.062 193.89 207.427 194.15 206.764 194.158ZM184.944 190.038C184.501 190.045 184.076 190.218 183.754 190.523C183.432 190.828 183.236 191.243 183.206 191.686C183.196 191.895 183.228 192.104 183.3 192.301C183.372 192.497 183.483 192.678 183.626 192.831C183.771 192.982 183.945 193.101 184.138 193.182C184.33 193.262 184.537 193.303 184.746 193.301H206.764C207.21 193.297 207.638 193.126 207.962 192.82C208.286 192.514 208.482 192.097 208.511 191.653C208.527 191.441 208.499 191.229 208.429 191.029C208.358 190.829 208.247 190.645 208.102 190.49C207.958 190.336 207.782 190.212 207.587 190.129C207.393 190.045 207.182 190.003 206.97 190.005L184.944 190.038Z" fill="#263238"/>
<path d="M170.013 193.738C169.959 193.735 169.906 193.723 169.856 193.7C169.807 193.677 169.763 193.645 169.726 193.605C169.689 193.566 169.661 193.519 169.642 193.468C169.624 193.417 169.615 193.363 169.617 193.309L169.799 189.659C169.798 189.604 169.81 189.55 169.832 189.499C169.853 189.449 169.886 189.404 169.926 189.367C169.966 189.329 170.014 189.301 170.066 189.283C170.117 189.265 170.172 189.259 170.227 189.263C170.337 189.27 170.44 189.319 170.514 189.401C170.588 189.482 170.627 189.59 170.623 189.7L170.441 193.342C170.439 193.396 170.426 193.449 170.404 193.499C170.381 193.548 170.349 193.592 170.309 193.629C170.269 193.665 170.223 193.694 170.172 193.713C170.121 193.731 170.067 193.74 170.013 193.738Z" fill="white"/>
<path d="M169.996 194.158C169.888 194.154 169.785 194.11 169.708 194.035L168.109 192.386C168.071 192.348 168.04 192.303 168.019 192.252C167.998 192.202 167.987 192.148 167.987 192.094C167.987 192.04 167.998 191.986 168.019 191.936C168.04 191.885 168.071 191.84 168.109 191.801C168.147 191.763 168.193 191.732 168.243 191.711C168.293 191.69 168.347 191.68 168.402 191.68C168.456 191.68 168.51 191.69 168.56 191.711C168.61 191.732 168.656 191.763 168.694 191.801L170.004 193.186L171.471 191.785C171.51 191.746 171.555 191.716 171.605 191.695C171.655 191.674 171.709 191.663 171.764 191.663C171.818 191.663 171.872 191.674 171.922 191.695C171.972 191.716 172.018 191.746 172.056 191.785C172.095 191.823 172.125 191.867 172.146 191.917C172.167 191.966 172.177 192.02 172.177 192.073C172.177 192.127 172.167 192.18 172.146 192.23C172.125 192.279 172.095 192.324 172.056 192.362L170.293 194.051C170.211 194.122 170.105 194.161 169.996 194.158Z" fill="white"/>
<path d="M294.729 231.193C292.1 214.712 299.302 193.098 308.432 194.688C315.997 196.007 296.294 226.158 294.729 231.193Z" fill="#FFD31F"/>
<path d="M291.853 239.598C300.439 227.395 295.149 202.311 286.085 201.743C277.02 201.174 291.111 233.459 291.853 239.598Z" fill="#263238"/>
<path d="M292.281 246.744C291.301 220.375 307.361 207.116 314.53 210.264C321.905 213.511 297.893 232.15 292.281 246.744Z" fill="#FFD31F"/>
<path d="M290.122 263.164C298.709 244.599 291.35 215.585 277.696 218.724C266.374 221.328 288.095 255.352 290.122 263.164Z" fill="#FFD31F"/>
<path d="M290.707 268.72C289.76 250.921 284.362 228.228 273.271 230.329C262.691 232.307 287.411 253.154 290.707 268.72Z" fill="#263238"/>
<path d="M287.988 277.428C290.707 251.167 313.187 236.507 312.956 246.47C312.717 257.108 295.544 264.038 287.988 277.428Z" fill="#FFD31F"/>
<path d="M290.172 271.865C293.328 262.471 285.912 249.715 278.124 252.443C271.672 254.709 288.145 268.437 290.172 271.865Z" fill="#FFD31F"/>
<path d="M290.378 268.356C286.983 248.217 304.337 213.559 319.993 221.008C335.205 228.251 297.794 245.218 290.378 268.356Z" fill="#263238"/>
<path d="M298.124 298.754H283.126C281.817 298.756 280.542 298.338 279.488 297.56C278.435 296.783 277.659 295.687 277.276 294.436C275.315 288.444 274.417 282.155 274.622 275.854C274.727 273.867 275.003 271.893 275.446 269.954C275.532 269.566 275.747 269.219 276.055 268.969C276.363 268.719 276.747 268.581 277.144 268.578H304.147C304.543 268.58 304.927 268.718 305.234 268.968C305.541 269.219 305.754 269.566 305.836 269.954C306.28 271.893 306.556 273.867 306.66 275.854C306.864 282.154 305.969 288.442 304.015 294.436C303.628 295.693 302.845 296.792 301.784 297.569C300.723 298.347 299.439 298.762 298.124 298.754Z" fill="#FFD31F"/>
<path opacity="0.5" d="M306.611 275.854H274.623C274.727 273.867 275.003 271.893 275.447 269.954C275.532 269.566 275.747 269.219 276.055 268.969C276.363 268.719 276.747 268.581 277.144 268.578H304.147C304.544 268.58 304.927 268.718 305.234 268.968C305.541 269.219 305.754 269.566 305.837 269.954C306.263 271.895 306.523 273.869 306.611 275.854Z" fill="white"/>
</svg>
