<svg width="512" height="512" viewBox="0 0 512 512" fill="none" xmlns="http://www.w3.org/2000/svg">
<path opacity="0.4" d="M156.25 111.09L400.82 355.66C388.613 373.357 373.268 388.703 355.57 400.91L111 156.34C123.207 138.643 138.553 123.297 156.25 111.09Z" fill="white"/>
<path d="M256 16C123.451 16 16 123.451 16 256C16 388.549 123.451 496 256 496C388.549 496 496 388.549 496 256C496 123.451 388.549 16 256 16ZM256 432C158.953 432 80 353.047 80 256C80 158.953 158.953 80 256 80C353.047 80 432 158.953 432 256C432 353.047 353.047 432 256 432Z" fill="white"/>
</svg>
