<svg width="32" height="32" viewBox="0 0 32 32" fill="none" xmlns="http://www.w3.org/2000/svg">
<path d="M24 17H15V8C15 7.73478 14.8946 7.48043 14.7071 7.29289C14.5196 7.10536 14.2652 7 14 7C11.8244 7 9.69767 7.64514 7.88873 8.85383C6.07979 10.0625 4.66989 11.7805 3.83733 13.7905C3.00477 15.8005 2.78693 18.0122 3.21137 20.146C3.6358 22.2798 4.68345 24.2398 6.22183 25.7782C7.76021 27.3166 9.72022 28.3642 11.854 28.7886C13.9878 29.2131 16.1995 28.9952 18.2095 28.1627C20.2195 27.3301 21.9375 25.9202 23.1462 24.1113C24.3549 22.3023 25 20.1756 25 18C25 17.7348 24.8946 17.4804 24.7071 17.2929C24.5196 17.1054 24.2652 17 24 17Z" fill="#4C9A2A"/>
<path d="M17 3C16.7348 3 16.4804 3.10536 16.2929 3.29289C16.1054 3.48043 16 3.73478 16 4V15C16 15.2652 16.1054 15.5196 16.2929 15.7071C16.4804 15.8946 16.7348 16 17 16H28C28.2652 16 28.5196 15.8946 28.7071 15.7071C28.8946 15.5196 29 15.2652 29 15C28.9966 11.8185 27.7312 8.76821 25.4815 6.51852C23.2318 4.26883 20.1815 3.00344 17 3Z" fill="#E5E9EC"/>
</svg>
