<svg width="512" height="512" viewBox="0 0 512 512" fill="none" xmlns="http://www.w3.org/2000/svg">
<path opacity="0.4" d="M192 252.281C181.766 252.281 171.531 248.375 163.719 240.563L83.719 160.563C68.094 144.938 68.094 119.625 83.719 104C99.344 88.375 124.656 88.375 140.281 104L192 155.719L323.719 24C339.344 8.375 364.656 8.375 380.281 24C395.906 39.625 395.906 64.938 380.281 80.563L220.281 240.563C212.469 248.375 202.234 252.281 192 252.281Z" fill="white"/>
<path d="M192 488C181.766 488 171.531 484.094 163.719 476.281L35.719 348.281C20.094 332.656 20.094 307.344 35.719 291.719C51.344 276.094 76.656 276.094 92.281 291.719L192 391.438L419.719 163.719C435.344 148.094 460.656 148.094 476.281 163.719C491.906 179.344 491.906 204.656 476.281 220.281L220.281 476.281C212.469 484.094 202.234 488 192 488Z" fill="white"/>
</svg>
