<svg width="24" height="24" viewBox="0 0 24 24" fill="none" xmlns="http://www.w3.org/2000/svg">
<path d="M15.7 22H8.3C3.3 22 2 20.6 2 15.7V10.3C2 5.4 3.4 4 8.3 4H15.7C20.7 4 22 5.4 22 10.3V15.7C22 20.6 20.6 22 15.7 22ZM8.3 6C4.5 6 4 6.5 4 10.3V15.7C4 19.5 4.5 20 8.3 20H15.7C19.5 20 20 19.5 20 15.7V10.3C20 6.5 19.5 6 15.7 6H8.3Z" fill="#76AC39"/>
<path d="M6 6C5.4 6 5 5.6 5 5V3C5 2.4 5.4 2 6 2C6.6 2 7 2.4 7 3V5C7 5.6 6.6 6 6 6ZM18 6C17.4 6 17 5.6 17 5V3C17 2.4 17.4 2 18 2C18.6 2 19 2.4 19 3V5C19 5.6 18.6 6 18 6ZM17 10H7C6.4 10 6 9.6 6 9C6 8.4 6.4 8 7 8H17C17.6 8 18 8.4 18 9C18 9.6 17.6 10 17 10Z" fill="#76AC39"/>
</svg>
