<svg width="25" height="25" viewBox="0 0 25 25" fill="none" xmlns="http://www.w3.org/2000/svg">
<path d="M20.78 18.7L17.88 15.8C18.9735 14.3973 19.565 12.6685 19.56 10.89C19.56 8.73997 18.72 6.71997 17.2 5.19997C14.07 2.05997 8.96001 2.05997 5.83001 5.19997C2.69001 8.33997 2.69001 13.44 5.83001 16.57C6.57529 17.32 7.46193 17.9148 8.43862 18.3199C9.41531 18.725 10.4626 18.9324 11.52 18.93C13.34 18.93 15.07 18.32 16.47 17.22L19.37 20.12C19.57 20.32 19.82 20.41 20.08 20.41C20.34 20.41 20.59 20.31 20.79 20.12C20.8827 20.0275 20.9563 19.9176 21.0064 19.7966C21.0566 19.6756 21.0824 19.5459 21.0824 19.415C21.0824 19.284 21.0566 19.1543 21.0064 19.0333C20.9563 18.9124 20.8827 18.8025 20.79 18.71L20.78 18.7ZM7.24001 15.16C4.88001 12.8 4.88001 8.96997 7.24001 6.61997C7.80029 6.05852 8.46588 5.61316 9.19861 5.30943C9.93134 5.0057 10.7168 4.84956 11.51 4.84997C13.05 4.84997 14.6 5.43997 15.78 6.61997C16.96 7.79997 17.55 9.27997 17.55 10.89C17.55 12.5 16.92 14.02 15.78 15.16C14.64 16.3 13.12 16.93 11.51 16.93C9.90001 16.93 8.38001 16.3 7.24001 15.16Z" fill="#AAAAAA"/>
</svg>
