<?xml version="1.0" encoding="UTF-8" standalone="no"?>
<svg xmlns="http://www.w3.org/2000/svg" xmlns:xlink="http://www.w3.org/1999/xlink" viewBox="0 0 25.0 25.0">
  <path d="m20.78,18.7 l-2.9,-2.9a7.95,7.95 0,0 0,1.68 -4.91c0,-2.15 -0.84,-4.17 -2.36,-5.69 -3.13,-3.14 -8.24,-3.14 -11.37,0 -3.14,3.14 -3.14,8.24 0,11.37a7.996,7.996 0,0 0,5.69 2.36c1.82,0 3.55,-0.61 4.95,-1.71l2.9,2.9c0.2,0.2 0.45,0.29 0.71,0.29s0.51,-0.1 0.71,-0.29a0.996,0.996 0,0 0,0 -1.41zM7.24,15.16c-2.36,-2.36 -2.36,-6.19 0,-8.54a6.028,6.028 0,0 1,4.27 -1.77c1.54,0 3.09,0.59 4.27,1.77s1.77,2.66 1.77,4.27 -0.63,3.13 -1.77,4.27 -2.66,1.77 -4.27,1.77c-1.61,0 -3.13,-0.63 -4.27,-1.77z" fill="#000000"/>
</svg>
